<?xml version="1.0" encoding="UTF-8" standalone="no"?>
<svg
   xmlns:dc="http://purl.org/dc/elements/1.1/"
   xmlns:cc="http://creativecommons.org/ns#"
   xmlns:rdf="http://www.w3.org/1999/02/22-rdf-syntax-ns#"
   xmlns:svg="http://www.w3.org/2000/svg"
   xmlns="http://www.w3.org/2000/svg"
   xmlns:sodipodi="http://sodipodi.sourceforge.net/DTD/sodipodi-0.dtd"
   xmlns:inkscape="http://www.inkscape.org/namespaces/inkscape"
   width="50mm"
   height="50mm"
   viewBox="0 0 50 50"
   version="1.1"
   id="svg8"
   inkscape:version="1.0.1 (0767f8302a, 2020-10-17)"
   sodipodi:docname="switch-disconnected.svg">
  <defs
     id="defs2" />
  <sodipodi:namedview
     id="base"
     pagecolor="#ffffff"
     bordercolor="#666666"
     borderopacity="1.0"
     inkscape:pageopacity="0.0"
     inkscape:pageshadow="2"
     inkscape:zoom="11.2"
     inkscape:cx="110.85073"
     inkscape:cy="98.121936"
     inkscape:document-units="mm"
     inkscape:current-layer="layer1"
     inkscape:document-rotation="0"
     showgrid="false"
     inkscape:window-width="1848"
     inkscape:window-height="1016"
     inkscape:window-x="72"
     inkscape:window-y="27"
     inkscape:window-maximized="1"
     inkscape:snap-center="false" />
  <metadata
     id="metadata5">
    <rdf:RDF>
      <cc:Work
         rdf:about="">
        <dc:format>image/svg+xml</dc:format>
        <dc:type
           rdf:resource="http://purl.org/dc/dcmitype/StillImage" />
        <dc:title></dc:title>
      </cc:Work>
    </rdf:RDF>
  </metadata>
  <g
     inkscape:label="Layer 1"
     inkscape:groupmode="layer"
     id="layer1">
    <path
       style="fill:#000000;stroke-width:0.0291954"
       d="m 19.060923,29.924904 c -0.01501,-0.0281 -0.03511,-0.333558 -0.04467,-0.678792 -0.0096,-0.345236 -0.0316,-0.995562 -0.04898,-1.445171 l -0.0316,-0.817471 0.106107,-0.773677 c 0.05836,-0.425523 0.13777,-1.01016 0.176469,-1.299194 0.0387,-0.289034 0.123332,-0.913086 0.188072,-1.386781 0.06474,-0.473695 0.13794,-1.018918 0.162667,-1.211607 0.02473,-0.19269 0.05297,-0.370052 0.06276,-0.394138 0.0098,-0.02408 0.01526,-0.07664 0.01216,-0.116781 -0.0047,-0.06012 1.66e-4,-0.06527 0.02731,-0.0292 0.02597,0.03451 0.02954,0.02392 0.01686,-0.04996 -0.0088,-0.05156 -0.0049,-0.100643 0.0087,-0.109064 0.01363,-0.0084 2.545859,-0.02369 5.627186,-0.03393 4.731447,-0.01572 5.607539,-0.01239 5.635398,0.02148 0.01814,0.02205 0.181879,1.202803 0.363858,2.623888 0.272292,2.126346 0.329714,2.640648 0.324333,2.904939 -0.01588,0.780369 -0.09468,2.793301 -0.110329,2.818624 -0.0109,0.01763 -2.309302,0.02793 -6.233121,0.02793 -5.89001,0 -6.217294,-0.0027 -6.243156,-0.05109 z m 8.740054,-0.77435 0.729885,-0.0066 0.0078,-0.709149 0.0078,-0.709148 -3.928637,0.0036 c -3.029507,0.0028 -3.938353,-0.0044 -3.971091,-0.03161 -0.02458,-0.0204 -0.04245,-0.02287 -0.04245,-0.0059 0,0.01615 -0.02837,0.03678 -0.06304,0.04585 -0.06291,0.01645 -0.063,0.01782 -0.04392,0.653002 0.01052,0.350084 0.01918,0.669362 0.01924,0.709506 l 1.24e-4,0.07299 3.277182,-0.008 c 1.80245,-0.0044 3.605629,-0.01095 4.007066,-0.0146 z m -7.050681,-0.29858 c 0,-0.08272 -0.01297,-0.131379 -0.03503,-0.131379 -0.02725,0 -0.02725,-0.0078 0,-0.03503 0.03771,-0.03771 0.04775,-0.176082 0.01514,-0.208696 -0.01095,-0.01094 -0.01651,-0.09293 -0.01238,-0.182191 0.0066,-0.143021 3.24e-4,-0.164175 -0.05309,-0.178142 -0.04008,-0.01048 -0.06061,-0.03955 -0.06061,-0.08582 0,-0.06909 0.0013,-0.06942 0.10575,-0.02579 0.134926,0.05638 0.156099,0.05511 0.244594,-0.01464 0.06185,-0.04874 0.0663,-0.06195 0.0292,-0.08649 -0.03214,-0.02126 -0.0069,-0.02908 0.09489,-0.02941 0.103607,-3.23e-4 0.138678,-0.01152 0.138678,-0.04424 0,-0.03601 0.0519,-0.04379 0.291954,-0.04379 0.24005,0 0.291953,0.0078 0.291953,0.04379 0,0.03383 0.04151,0.0447 0.182472,0.04777 0.100359,0.0022 0.152911,0.0097 0.116781,0.01663 -0.09465,0.01823 -0.08082,0.08821 0.0219,0.110774 0.04817,0.01058 0.08759,0.0324 0.08759,0.04849 0,0.01609 0.04397,0.0021 0.0977,-0.03113 0.05374,-0.03321 0.104861,-0.05323 0.113607,-0.04448 0.02897,0.02898 -0.01304,0.129303 -0.05414,0.129303 -0.03598,0 -0.05264,0.03475 -0.04453,0.09282 0.0053,0.03775 0.01066,0.506244 0.0074,0.644358 l -0.0033,0.138678 h -0.788252 -0.788275 z m 0.396718,-0.211519 c -0.03189,-0.03189 -0.05376,0.01883 -0.03086,0.07158 0.02171,0.05002 0.02329,0.04998 0.03538,-0.001 0.007,-0.02936 0.0049,-0.06111 -0.0045,-0.07056 z m 0.128799,0.0451 c 0,-0.04716 -0.0086,-0.0556 -0.03249,-0.03174 -0.01787,0.01787 -0.02366,0.04677 -0.01288,0.06423 0.0302,0.04886 0.04537,0.038 0.04537,-0.03249 z m 0.131025,-0.02393 c -0.01637,-0.02648 -0.02722,-0.02568 -0.04516,0.0033 -0.03078,0.04981 -5.28e-4,0.09874 0.03751,0.06069 0.01606,-0.01606 0.0195,-0.04488 0.0077,-0.06405 z m 0.379893,5.63e-4 c -0.01412,-0.02286 -0.03092,-0.02455 -0.05038,-0.0051 -0.01606,0.01606 -0.01966,0.04462 -0.008,0.06348 0.01412,0.02286 0.03092,0.02455 0.05038,0.0051 0.01606,-0.01606 0.01966,-0.04462 0.008,-0.06348 z m -0.24816,0.03092 c 0,-0.01511 -0.01314,-0.03559 -0.0292,-0.04552 -0.01606,-0.0099 -0.0292,0.0024 -0.0292,0.02747 0,0.02504 0.01314,0.04552 0.0292,0.04552 0.01606,0 0.0292,-0.01236 0.0292,-0.02747 z m 0.124595,-0.03339 c -0.0121,-0.04627 -0.02183,-0.05152 -0.04061,-0.0219 -0.03597,0.05674 -0.0311,0.08276 0.01547,0.08276 0.02724,0 0.0357,-0.02048 0.02514,-0.06086 z m 0.254945,0.01706 c 0,-0.02408 -0.01314,-0.04379 -0.0292,-0.04379 -0.01606,0 -0.0292,0.01971 -0.0292,0.04379 0,0.02408 0.01314,0.04379 0.0292,0.04379 0.01606,0 0.0292,-0.01971 0.0292,-0.04379 z m 0.127403,1.65e-4 c -0.0092,-0.02399 -0.0285,-0.03636 -0.04288,-0.02747 -0.04122,0.02548 -0.03048,0.0711 0.01674,0.0711 0.02605,0 0.03631,-0.01712 0.02614,-0.04363 z m 0.686146,0.168174 c -0.0021,-0.07653 -9.86e-4,-0.194983 0.0026,-0.263226 0.0036,-0.06824 -0.0045,-0.124057 -0.01798,-0.124028 -0.01349,2.9e-5 -0.02008,-0.0788 -0.01463,-0.175172 0.0091,-0.16141 0.0051,-0.175232 -0.05109,-0.175232 -0.04524,0 -0.06098,-0.01845 -0.06098,-0.07147 0,-0.06674 0.0058,-0.06945 0.08764,-0.04092 0.0482,0.0168 0.09468,0.04195 0.103289,0.05587 0.02132,0.03449 0.217806,-0.06207 0.217806,-0.107033 0,-0.01978 -0.01642,-0.04258 -0.03649,-0.05068 -0.02007,-0.0081 0.02438,-0.01576 0.09878,-0.01703 0.109636,-0.0019 0.138167,-0.01337 0.150543,-0.06069 0.01394,-0.05332 0.03982,-0.05839 0.298092,-0.05839 0.258269,0 0.284148,0.0051 0.298092,0.05839 0.01261,0.04821 0.0414,0.05898 0.16514,0.06178 0.08243,0.0019 0.126879,0.0094 0.09878,0.01674 -0.09095,0.02377 -0.05425,0.08375 0.07182,0.1174 0.09876,0.02636 0.138917,0.02453 0.204368,-0.0093 0.07826,-0.04047 0.08146,-0.03936 0.08146,0.02821 0,0.04578 -0.02038,0.07566 -0.05839,0.0856 -0.04721,0.01235 -0.05839,0.03982 -0.05839,0.143543 0,0.07055 0.01577,0.144039 0.03503,0.163308 0.02629,0.02629 0.0265,0.03503 8.45e-4,0.03503 -0.02387,0 -0.03276,0.07706 -0.02947,0.255459 l 0.0047,0.25546 -0.793843,0.0078 -0.793842,0.0078 -0.0039,-0.139147 z m 0.40706,-0.155934 c -0.0058,-0.01726 -0.02294,-0.03138 -0.0382,-0.03138 -0.01526,0 -0.03244,0.01412 -0.0382,0.03138 -0.0058,0.01726 0.01143,0.03139 0.0382,0.03139 0.02676,0 0.04395,-0.01412 0.0382,-0.03139 z m 0.122378,-0.01241 c 0,-0.02408 -0.01236,-0.04379 -0.02747,-0.04379 -0.03681,0 -0.06318,0.04559 -0.03986,0.06892 0.03288,0.03288 0.06733,0.02003 0.06733,-0.02512 z m 0.116781,0 c 0,-0.02408 -0.01314,-0.04379 -0.0292,-0.04379 -0.01606,0 -0.0292,0.01971 -0.0292,0.04379 0,0.02408 0.01314,0.04379 0.0292,0.04379 0.01606,0 0.0292,-0.01971 0.0292,-0.04379 z m 0.116782,0 c 0,-0.02408 -0.01314,-0.04379 -0.0292,-0.04379 -0.01606,0 -0.0292,0.01971 -0.0292,0.04379 0,0.02408 0.01314,0.04379 0.0292,0.04379 0.01606,0 0.0292,-0.01971 0.0292,-0.04379 z m 0.145529,0.0219 c -5.63e-4,-0.02795 -0.0569,-0.116094 -0.0575,-0.08997 -2.38e-4,0.01073 -0.0084,0.04029 -0.01817,0.06569 -0.01163,0.03031 -0.0016,0.04618 0.0292,0.04618 0.02581,0 0.04672,-0.0099 0.04647,-0.0219 z m 0.117229,-0.0219 c 0,-0.02408 -0.01314,-0.04379 -0.0292,-0.04379 -0.01606,0 -0.0292,0.01971 -0.0292,0.04379 0,0.02408 0.01314,0.04379 0.0292,0.04379 0.01606,0 0.0292,-0.01971 0.0292,-0.04379 z m 0.116781,-0.01632 c 0,-0.03306 -0.01314,-0.05199 -0.0292,-0.04207 -0.01606,0.0099 -0.0292,0.03698 -0.0292,0.06011 0,0.02314 0.01314,0.04207 0.0292,0.04207 0.01606,0 0.0292,-0.02705 0.0292,-0.06011 z m 0.140381,0.02873 c -0.0058,-0.01726 -0.02294,-0.03138 -0.0382,-0.03138 -0.01525,0 -0.03244,0.01412 -0.0382,0.03138 -0.0058,0.01726 0.01144,0.03139 0.0382,0.03139 0.02676,0 0.04395,-0.01412 0.0382,-0.03139 z m 0.706285,0.267089 c 0,-0.01488 0.02299,-0.03306 0.05109,-0.04041 0.04866,-0.01272 0.04866,-0.01351 0,-0.01674 -0.05737,-0.0038 -0.05993,-0.02662 -0.054,-0.480434 0.0034,-0.265059 -8.1e-4,-0.288467 -0.05506,-0.302658 -0.06814,-0.01782 -0.08069,-0.125352 -0.01462,-0.125352 0.0243,0 0.06963,0.01589 0.100717,0.0353 0.04565,0.02851 0.07647,0.02579 0.160178,-0.01412 0.113105,-0.05394 0.13231,-0.09699 0.05256,-0.117833 -0.0281,-0.0073 0.01085,-0.01487 0.08656,-0.01674 0.106447,-0.0026 0.144861,-0.01686 0.169457,-0.06282 0.02915,-0.05447 0.05545,-0.05873 0.314876,-0.05109 0.228451,0.0067 0.283072,0.01679 0.283072,0.05213 0,0.02781 0.03731,0.04912 0.102184,0.05839 0.06115,0.0087 0.102184,0.03101 0.102184,0.05545 0,0.02247 0.05046,0.05832 0.112121,0.07967 0.0955,0.03306 0.1245,0.03241 0.195619,-0.0044 0.04592,-0.02375 0.09064,-0.04318 0.09936,-0.04318 0.03457,0 -0.0063,0.12914 -0.04483,0.141514 -0.08121,0.02611 -0.0952,0.126019 -0.04138,0.295585 0.01087,0.03425 0.0056,0.05922 -0.01237,0.05922 -0.03438,0 -0.04325,0.153359 -0.01075,0.185853 0.0322,0.0322 0.0072,0.293332 -0.03036,0.317234 -0.05035,0.03204 -1.566603,0.02756 -1.566603,-0.0046 z m 0.37954,-0.295818 c 0,-0.03306 -0.01314,-0.05199 -0.0292,-0.04207 -0.01606,0.0099 -0.0292,0.03698 -0.0292,0.06011 0,0.02314 0.01314,0.04207 0.0292,0.04207 0.01606,0 0.0292,-0.02705 0.0292,-0.06011 z m 0.118971,0.02289 c -0.0036,-0.03491 -0.04365,-0.02815 -0.0562,0.0095 -0.0064,0.01927 0.0041,0.02978 0.02336,0.02336 0.01927,-0.0064 0.03405,-0.0212 0.03284,-0.03284 z m 0.143787,-0.0048 c 0,-0.02314 -0.01314,-0.05019 -0.0292,-0.06011 -0.01606,-0.0099 -0.0292,0.009 -0.0292,0.04207 0,0.03306 0.01314,0.06011 0.0292,0.06011 0.01606,0 0.0292,-0.01893 0.0292,-0.04207 z m 0.116782,-0.0017 c 0,-0.02408 -0.01314,-0.04379 -0.0292,-0.04379 -0.01606,0 -0.0292,0.01971 -0.0292,0.04379 0,0.02408 0.01314,0.04379 0.0292,0.04379 0.01606,0 0.0292,-0.01971 0.0292,-0.04379 z m 0.126227,-0.03209 c -0.01123,-0.02927 -0.02712,-0.0349 -0.04581,-0.0162 -0.03343,0.03344 -0.0011,0.100629 0.03711,0.07704 0.01425,-0.0088 0.01816,-0.03618 0.0087,-0.06083 z m 0.136532,0.03382 c 0,-0.02314 -0.01176,-0.04934 -0.02614,-0.05822 -0.03005,-0.01857 -0.06629,0.05652 -0.03997,0.08284 0.03133,0.03133 0.06611,0.01837 0.06611,-0.02462 z m 0.116781,-0.0017 c 0,-0.02408 -0.01314,-0.04379 -0.0292,-0.04379 -0.01606,0 -0.0292,0.01971 -0.0292,0.04379 0,0.02409 0.01314,0.04379 0.0292,0.04379 0.01606,0 0.0292,-0.01971 0.0292,-0.04379 z m 0.126227,-0.03209 c -0.01123,-0.02927 -0.02713,-0.0349 -0.04581,-0.01621 -0.03343,0.03344 -0.0011,0.10063 0.03711,0.07704 0.01425,-0.0088 0.01816,-0.03618 0.0087,-0.06083 z m 0.715957,0.160677 c -0.0056,-0.08183 -2.56e-4,-0.154859 0.01178,-0.162298 0.02736,-0.0169 0.0289,-0.168511 0.002,-0.195419 -0.01094,-0.01095 -0.01656,-0.09196 -0.01248,-0.180038 0.0058,-0.124582 -0.0021,-0.160139 -0.03537,-0.160139 -0.02353,0 -0.05054,-0.02021 -0.06001,-0.0449 -0.02151,-0.05604 0.06084,-0.09209 0.106369,-0.04657 0.01819,0.01819 0.06001,0.03278 0.09292,0.03242 0.07756,-8.45e-4 0.219999,-0.11467 0.169333,-0.135319 -0.08159,-0.03325 -0.02845,-0.06032 0.09182,-0.04676 0.112362,0.01267 0.130802,0.0066 0.148305,-0.04852 0.01882,-0.05931 0.0367,-0.06272 0.307091,-0.05847 0.260603,0.0041 0.288513,0.0099 0.302382,0.06294 0.01235,0.04725 0.03434,0.0562 0.114904,0.0468 0.07835,-0.0091 0.09723,-0.0021 0.08842,0.03309 -0.02164,0.08632 0.210676,0.136796 0.348458,0.07572 0.04139,-0.01835 0.05109,-0.0082 0.05109,0.05346 0,0.05745 -0.01479,0.07611 -0.06029,0.07611 -0.05524,0 -0.06006,0.01652 -0.05757,0.197069 0.0015,0.108387 9.86e-4,0.223343 -0.0011,0.255459 -0.0021,0.03212 -9.16e-4,0.07153 0.0026,0.08759 0.0036,0.01606 0.0049,0.0916 0.003,0.167874 l -0.0034,0.138677 h -0.800095 -0.800055 l -0.01012,-0.148772 z m 0.384021,-0.128585 c 0,-0.02408 -0.01314,-0.04379 -0.0292,-0.04379 -0.01606,0 -0.0292,0.01971 -0.0292,0.04379 0,0.02408 0.01314,0.04379 0.0292,0.04379 0.01606,0 0.0292,-0.01971 0.0292,-0.04379 z m 0.116781,-0.02044 c 0,-0.04716 -0.0086,-0.0556 -0.03249,-0.03174 -0.01787,0.01787 -0.02366,0.04677 -0.01287,0.06423 0.0302,0.04886 0.04536,0.038 0.04536,-0.03249 z m 0.131025,-0.02393 c -0.01637,-0.02648 -0.02722,-0.02568 -0.04516,0.0033 -0.03078,0.04981 -5.63e-4,0.09874 0.03751,0.06069 0.01606,-0.01606 0.0195,-0.04488 0.0077,-0.06405 z m 0.131734,0.04609 c 0,-0.02314 -0.01314,-0.05019 -0.0292,-0.06011 -0.01606,-0.0099 -0.0292,0.009 -0.0292,0.04207 0,0.03306 0.01314,0.06011 0.0292,0.06011 0.01606,0 0.0292,-0.01893 0.0292,-0.04207 z m 0.126227,-0.03382 c -0.01123,-0.02927 -0.02713,-0.03489 -0.04581,-0.01621 -0.03344,0.03344 -0.0011,0.10063 0.03711,0.07704 0.01425,-0.0088 0.01816,-0.03618 0.0087,-0.06083 z m 0.11854,-0.02461 c -0.01799,-0.04688 -0.02244,-0.04733 -0.04633,-0.0047 -0.03154,0.05636 -8.3e-5,0.122884 0.03938,0.08338 0.01477,-0.01477 0.0179,-0.0502 0.007,-0.07873 z m 0.134773,0.04211 c 0,-0.03212 -0.01314,-0.05839 -0.0292,-0.05839 -0.01606,0 -0.0292,0.02627 -0.0292,0.05839 0,0.03211 0.01314,0.05839 0.0292,0.05839 0.01606,0 0.0292,-0.02627 0.0292,-0.05839 z m 0.116781,-0.0058 c 0,-0.04716 -0.0086,-0.0556 -0.03249,-0.03174 -0.01787,0.01787 -0.02366,0.04677 -0.01288,0.06423 0.0302,0.04886 0.04537,0.038 0.04537,-0.03249 z M 20.604319,27.90039 c 0,-0.01456 0.02628,-0.02646 0.05839,-0.02646 0.03212,0 0.05839,0.005 0.05839,0.01119 0,0.0062 -0.02627,0.01806 -0.05839,0.02646 -0.03212,0.0084 -0.05839,0.0033 -0.05839,-0.01119 z m 1.985285,0.0018 c 0,-0.01555 0.01971,-0.02828 0.04379,-0.02828 0.02408,0 0.04379,0.0052 0.04379,0.01147 0,0.0063 -0.01971,0.01904 -0.04379,0.02828 -0.02409,0.0092 -0.04379,0.0041 -0.04379,-0.01147 z m 2.014481,-0.0018 c 0,-0.01456 0.02627,-0.02646 0.05839,-0.02646 0.03212,0 0.05839,0.005 0.05839,0.01119 0,0.0062 -0.02627,0.01806 -0.05839,0.02646 -0.03212,0.0084 -0.05839,0.0033 -0.05839,-0.01119 z m 2.014479,-0.02819 c 0,-0.017 0.01314,-0.0228 0.0292,-0.01287 0.01606,0.0099 0.0292,0.02384 0.0292,0.03092 0,0.0071 -0.01314,0.01288 -0.0292,0.01288 -0.01606,0 -0.0292,-0.01391 -0.0292,-0.03092 z m 3.889188,1.268345 0.131133,-0.01797 0.02071,-0.687182 c 0.01309,-0.434231 0.01032,-0.693597 -0.0075,-0.704611 -0.02638,-0.01629 -0.777625,-0.01992 -1.656937,-0.008 l -0.382382,0.0052 -0.01666,0.693146 c -0.01232,0.512549 -0.0078,0.698797 0.01744,0.714839 0.04104,0.0261 1.707786,0.03017 1.894211,0.0046 z m -1.670339,-0.272256 c 0,-0.06328 -0.01483,-0.124222 -0.03295,-0.135419 -0.02252,-0.01392 -0.01791,-0.02878 0.0146,-0.04697 0.06742,-0.03773 0.06567,-0.228072 -0.0021,-0.228072 -0.0386,0 -0.04185,-0.0078 -0.0146,-0.03503 0.01927,-0.01927 0.03503,-0.0981 0.03503,-0.175172 0,-0.120674 -0.0081,-0.140138 -0.05839,-0.140138 -0.04212,0 -0.05839,-0.01946 -0.05839,-0.06987 0,-0.07833 0.06375,-0.117463 0.112287,-0.06893 0.0372,0.0372 0.267253,-0.02026 0.267253,-0.06675 0,-0.01541 0.04721,-0.02802 0.104917,-0.02802 0.08036,0 0.108491,-0.01366 0.120187,-0.05839 0.01402,-0.05361 0.03982,-0.05839 0.31501,-0.05839 0.281729,0 0.300724,0.0038 0.316081,0.06248 0.01407,0.05381 0.03108,0.06009 0.122557,0.04524 0.08891,-0.01443 0.100682,-0.01057 0.07224,0.0237 -0.02753,0.03317 -0.01344,0.04952 0.07418,0.08613 0.122729,0.05128 0.178088,0.05665 0.201037,0.01952 0.0087,-0.01412 0.04235,-0.0326 0.07471,-0.04106 0.04741,-0.0124 0.05885,-0.0012 0.05885,0.0576 0,0.04756 -0.01963,0.07812 -0.05637,0.08773 -0.07719,0.02018 -0.09209,0.07386 -0.06329,0.228013 0.01937,0.103698 0.01611,0.131319 -0.01549,0.131319 -0.06054,0 -0.05283,0.193207 0.0087,0.216798 0.0371,0.01424 0.04057,0.02679 0.0146,0.05276 -0.01874,0.01874 -0.03408,0.084 -0.03408,0.145019 v 0.110943 h -0.788275 -0.788275 z m 0.3345,-0.116488 c 0.0092,-0.01495 0.0035,-0.03543 -0.01288,-0.04551 -0.01632,-0.01009 -0.02967,0.0021 -0.02967,0.02718 0,0.05128 0.01752,0.05883 0.04255,0.01834 z m 0.132626,-0.01834 c 0,-0.02503 -0.01314,-0.0374 -0.0292,-0.02747 -0.01606,0.0099 -0.0292,0.03041 -0.0292,0.04552 0,0.01511 0.01314,0.02747 0.0292,0.02747 0.01606,0 0.0292,-0.02048 0.0292,-0.04552 z m 0.10753,-0.01835 c -0.0093,-0.02329 -0.01624,-0.01638 -0.01764,0.01764 -0.0013,0.03078 0.0056,0.04802 0.01534,0.03832 0.0097,-0.0097 0.01074,-0.03488 0.0023,-0.05596 z m 0.155229,0.03639 c 0,-0.01511 -0.01314,-0.03559 -0.0292,-0.04552 -0.01606,-0.0099 -0.0292,0.0024 -0.0292,0.02747 0,0.02503 0.01314,0.04551 0.0292,0.04551 0.01606,0 0.0292,-0.01236 0.0292,-0.02747 z m 0.116781,-0.01804 c 0,-0.02503 -0.01335,-0.03726 -0.02967,-0.02718 -0.01632,0.01009 -0.02211,0.03057 -0.01287,0.04552 0.02503,0.04049 0.04255,0.03295 0.04255,-0.01834 z m 0.145977,0.01804 c 0,-0.01511 -0.01314,-0.03559 -0.0292,-0.04552 -0.01606,-0.0099 -0.0292,0.0024 -0.0292,0.02747 0,0.02503 0.01314,0.04551 0.0292,0.04551 0.01606,0 0.0292,-0.01236 0.0292,-0.02747 z m 0.116781,-0.01632 c 0,-0.02409 -0.01314,-0.04379 -0.0292,-0.04379 -0.01606,0 -0.0292,0.01971 -0.0292,0.04379 0,0.02408 0.01314,0.04379 0.0292,0.04379 0.01606,0 0.0292,-0.0197 0.0292,-0.04379 z m 1.430573,-1.630585 c 0,-0.0056 -0.01387,-0.05003 -0.03082,-0.09866 l -0.03082,-0.08841 -2.428888,-0.01778 c -1.335891,-0.0098 -4.03015,-0.02579 -5.987246,-0.03556 -3.82586,-0.01911 -3.607616,-0.02677 -3.608659,0.126583 l -4.58e-4,0.06569 1.861205,0.0042 c 1.879073,0.0043 8.49983,0.03753 9.619874,0.04832 0.333192,0.0032 0.605803,0.0012 0.605803,-0.0044 z"
       id="path162" />
    <path
       style="fill:#b239ff;stroke-width:0.0321722"
       d="m 19.254253,29.937018 -0.182101,-0.012 -0.01947,-0.296073 c -0.0211,-0.320961 -0.08062,-2.023945 -0.08624,-2.467692 -0.0024,-0.18561 0.106164,-1.07706 0.337784,-2.774866 0.187687,-1.375772 0.341249,-2.523965 0.341249,-2.551541 0,-0.02757 0.01448,-0.04119 0.03217,-0.03025 0.01862,0.01151 0.03217,-0.01937 0.03217,-0.0733 v -0.09319 l 1.278842,-0.02127 c 0.703363,-0.0117 3.228705,-0.02129 5.611869,-0.02132 4.098672,-4.2e-5 4.333964,0.003 4.350338,0.05626 0.04599,0.149584 0.60205,4.453722 0.655664,5.075154 0.03835,0.444552 -0.04838,3.138508 -0.102794,3.192939 -0.02389,0.0239 -11.894926,0.04052 -12.249483,0.01715 z m 7.415531,-0.770281 1.88737,-0.02136 v -0.718103 -0.718106 l -3.981301,-0.0085 c -2.189716,-0.0047 -4.006637,0.0028 -4.037603,0.01672 -0.05057,0.02269 -0.0563,0.08364 -0.0563,0.598737 0,0.315412 0.0092,0.640645 0.02046,0.722741 l 0.02046,0.149265 h 2.129773 c 1.171376,0 2.97909,-0.0096 4.017143,-0.02136 z m 3.974386,-0.02904 c 0.0066,-0.006 0.01952,-0.330136 0.02882,-0.720238 l 0.0169,-0.709279 h -1.050282 -1.050281 v 0.722939 0.72294 l 0.426281,0.009 c 0.468106,0.0099 1.609611,-0.0079 1.628563,-0.02534 z m 0.729257,-2.097089 c -0.01202,-0.04866 -0.03295,-0.09987 -0.0465,-0.113795 -0.0322,-0.03308 -11.460119,-0.104063 -11.786086,-0.07321 -0.229307,0.02171 -0.251014,0.02999 -0.269284,0.102784 -0.01093,0.04355 -0.01313,0.08592 -0.0049,0.09417 0.01246,0.01246 5.918007,0.05222 10.878445,0.07323 l 1.250158,0.0053 z"
       id="path1495" />
  </g>
</svg>
